<?xml version="1.0" encoding="utf-8"?>
<!-- Generator: Adobe Illustrator 26.2.1, SVG Export Plug-In . SVG Version: 6.00 Build 0)  -->
<svg version="1.1" id="レイヤー_1" xmlns="http://www.w3.org/2000/svg" xmlns:xlink="http://www.w3.org/1999/xlink" x="0px"
	 y="0px" viewBox="0 0 296.586 92.053" enable-background="new 0 0 296.586 92.053" xml:space="preserve">
<g>
	<polygon fill="#0057B8" points="259.82,92.053 249.712,54.539 272.405,24.48 296.586,24.48 270.826,56.334 281.896,92.053 	"/>
	<polygon fill="#0057B8" points="216.452,92.053 236.733,24.476 258.144,24.476 237.893,92.053 	"/>
	<path fill="#0057B8" d="M192.898,92.053l-10.184-37.65h7.968c4.766-0.191,10.197-3.63,10.453-8.315
		c0.015-2.715-2.127-4.968-6.087-5.227h-9.084l-15.762,51.192h-21.017l20.31-67.577h33.928c10.903,0.145,19.633,9.086,19.517,19.99
		c0,0.092,0,0.184,0,0.278c-0.032,1.886-0.316,3.76-0.843,5.571c-2.194,7.375-7.91,13.177-15.252,15.48l7.956,26.258H192.898z"/>
	<path fill="#0057B8" d="M125.42,92.053l-10.18-37.645h7.969c4.777-0.191,10.211-3.63,10.446-8.315
		c0.054-2.715-2.116-4.968-6.073-5.227h-9.091l-15.757,51.187H81.712l20.329-67.574h33.918c10.899,0.152,19.622,9.091,19.508,19.99
		c0,0.092,0,0.184,0,0.278c-0.03,1.885-0.312,3.758-0.84,5.568v0.015l0.007-0.007v-0.007c-0.906,3.102-2.465,5.974-4.573,8.424
		c-2.821,3.315-6.523,5.763-10.678,7.06l7.968,26.254H125.42z"/>
	<polygon fill="#0057B8" points="58.828,92.053 54.71,51.092 26.009,92.053 0,92.053 69.383,0 79.811,92.053 	"/>
	<path fill="#0057B8" d="M222.938,44.747c-0.033,1.891-0.316,3.769-0.842,5.586C222.621,48.516,222.904,46.637,222.938,44.747z"/>
	<path fill="#0057B8" d="M155.47,44.747c-0.031,1.887-0.312,3.762-0.836,5.576c0.523-1.814,0.803-3.689,0.833-5.576H155.47z"/>
	<path fill="#0057B8" d="M222.939,44.469c0,0.092,0,0.184,0,0.278C222.939,44.654,222.939,44.561,222.939,44.469L222.939,44.469z"/>
	<path fill="#0057B8" d="M155.472,44.469c0,0.092,0,0.184,0,0.278c-0.003-0.093-0.004-0.185-0.004-0.278H155.472z"/>
</g>
</svg>
